Coordinates
version=1
nRows=11
nColumns=36
inDegrees=yes

Units are S.I. units (second, meters, Newtons, ...)
If the header above contains a line with 'inDegrees', this indicates whether rotational values are in degrees (yes) or radians (no).

endheader
time	pelvis_tilt	pelvis_list	pelvis_rotation	pelvis_tx	pelvis_ty	pelvis_tz	hip_flexion_r	hip_adduction_r	hip_rotation_r	knee_angle_r	knee_angle_r_beta	ankle_angle_r	subtalar_angle_r	mtp_angle_r	hip_flexion_l	hip_adduction_l	hip_rotation_l	knee_angle_l	knee_angle_l_beta	ankle_angle_l	subtalar_angle_l	mtp_angle_l	lumbar_extension	lumbar_bending	lumbar_rotation	arm_flex_r	arm_add_r	arm_rot_r	elbow_flex_r	pro_sup_r	arm_flex_l	arm_add_l	arm_rot_l	elbow_flex_l	pro_sup_l
     13.40000000	     -8.35796843	      2.62668908	     -3.19635497	      0.45854609	      0.88763969	     -0.08983926	      7.46245912	      3.09502727	      0.87924087	      1.98811515	      0.03469916	      6.88121568	    -13.35393227	     -7.49999987	      5.39375421	     -0.06333983	      5.61421177	      8.09259437	      0.14124242	     11.46319662	    -10.90203035	     -7.49999987	      2.34782681	      3.11765323	     -1.21162268	     53.83580759	     12.66092070	     68.69246250	    116.22473841	     94.08870556	     42.62386368	     18.40129659	     67.09389621	    118.87880928	     85.38447855
     13.41666670	     -8.25557676	      2.59911496	     -3.31330561	      0.46242207	      0.88860444	     -0.09219469	      7.34325094	      3.08093724	      0.81503968	      2.03233521	      0.03547094	      6.67183950	    -13.31023163	     -7.49999987	      5.16212693	     -0.03746686	      5.68446902	      8.04826341	      0.14046870	     11.42684910	    -10.92991497	     -7.49999987	      2.41773172	      3.10453308	     -1.25574836	     53.45292869	     12.69108719	     69.13125910	    116.18619684	     94.10864407	     42.37939349	     18.47224994	     67.33629484	    118.87439932	     85.39448046
     13.43333330	     -8.19706293	      2.58582910	     -3.48264410	      0.46229241	      0.88907319	     -0.09169089	      7.21915650	      3.07177666	      0.96511671	      1.94790089	      0.03399728	      6.44645780	    -13.50737981	     -7.49999987	      4.82980409	     -0.00984766	      5.75385914	      7.70986172	      0.13456247	     11.19445539	    -11.21528408	     -7.49999987	      2.51027072	      3.13529239	     -1.32865747	     53.19972290	     12.92462328	     69.62364438	    115.87068731	     93.55607838	     42.15755107	     18.49632576	     67.49492105	    119.15875561	     84.88285524
     13.45000000	     -8.08710586	      2.55393566	     -3.67934321	      0.46172045	      0.89348577	     -0.09163978	      7.12172544	      3.07260204	      0.93201978	      1.98201435	      0.03459268	      6.22376193	    -13.37014482	     -7.49999987	      4.54420031	      0.00081541	      5.67748328	      7.45082105	      0.13004136	     11.07974261	    -11.24589165	     -7.49999987	      2.49204164	      3.10765746	     -1.39827433	     52.66642840	     12.79261271	     69.84527657	    115.71279838	     93.57409735	     41.93243864	     18.28242042	     67.49162159	    118.92879380	     84.87878137
     13.46666670	     -7.66402348	      2.53682396	     -3.73813258	      0.46154848	      0.89341859	     -0.09153917	      6.55764408	      3.04654724	      0.63900159	      1.74295219	      0.03042025	      6.58364483	    -12.40024969	     -7.49999987	      3.78732135	      0.03449137	      5.69354333	      6.95832435	      0.12144567	     10.76548979	    -11.21800642	     -7.49999987	      2.09975616	      3.00030014	     -1.09941490	     52.47070193	     12.53199120	     69.90354294	    115.43149495	     89.88854397	     41.71493767	     18.22387452	     67.60053508	    118.63141713	     82.15408187
     13.48333330	     -7.66439713	      2.53009321	     -3.87790561	      0.46140124	      0.89307909	     -0.09141021	      6.53440981	      3.07681831	      1.21404551	      1.61967909	      0.02826873	      6.09630432	    -13.21691020	     -7.49999987	      3.63709379	      0.04740465	      5.71315034	      6.66984133	      0.11641069	     10.46829969	    -11.55397468	     -7.49999987	      2.13694568	      2.92053016	     -0.71635068	     52.18747783	     12.29079362	     69.41989455	    115.12287745	     93.43287861	     41.55192084	     18.16844375	     67.57650855	    118.23726487	     84.42538336
     13.50000000	     -7.44792684	      2.50743487	     -3.91202077	      0.46134945	      0.89095070	     -0.09111940	      6.28535089	      3.10221188	      1.31521261	      1.54967608	      0.02704695	      6.11480420	    -13.19571837	     -7.49999987	      3.29025031	      0.02913732	      5.63301552	      6.48073908	      0.11311023	     10.50600856	    -11.46504480	     -7.49999987	      1.98955883	      2.80011545	     -0.33948593	     52.29727040	     12.02266593	     68.98180313	    114.89720742	     93.15644040	     41.62245599	     18.23253893	     67.78140308	    118.18671947	     84.28191604
     13.51666670	     -7.18953981	      2.41967488	     -3.87023831	      0.46126728	      0.89133941	     -0.09130858	      5.97048600	      3.15919700	      0.97535244	      1.52967978	      0.02669795	      6.28338198	    -12.67587584	     -7.49999987	      2.90248781	     -0.04985662	      5.74846962	      6.30367500	      0.11001988	     10.50451094	    -11.46759067	     -7.49999987	      1.76469890	      2.80647672	     -0.18612903	     52.41622254	     11.76404979	     68.78310179	    114.99281270	     89.96310481	     41.76224108	     18.24045893	     67.97001748	    118.15267824	     82.17760054
     13.53333330	     -7.13627758	      2.40148419	     -3.94340389	      0.46073068	      0.89283726	     -0.09123477	      5.91945117	      3.18625011	      1.18654425	      1.53447123	      0.02678158	      6.12111494	    -13.00809830	     -7.49999987	      2.77825876	     -0.07461116	      5.75360229	      6.15133429	      0.10736104	     10.37974776	    -11.48834150	     -7.49999987	      1.75818793	      2.71622847	      0.08594416	     52.04196209	     11.55831943	     68.35567613	    115.11003912	     93.09789953	     41.44276023	     18.06086866	     68.04631986	    118.39037426	     84.68353729
     13.55000000	     -6.97571366	      2.31685209	     -3.90013162	      0.46109006	      0.88867862	     -0.09139738	      5.72390920	      3.26424662	      1.04836095	      1.53032106	      0.02670914	      6.17686678	    -12.87689130	     -7.49999987	      2.57114148	     -0.15578958	      5.80053203	      6.12074303	      0.10682712	     10.39133285	    -11.49102260	     -7.49999987	      1.73447934	      2.71806116	      0.30042192	     52.28387494	     11.28241673	     68.07605229	    115.27352972	     91.85115715	     41.62732609	     18.23625286	     68.08753952	    118.74691002	     83.61750586
     13.56666670	     -6.97967526	      2.30599714	     -3.90297910	      0.46046231	      0.89285070	     -0.09140593	      5.72633639	      3.25771312	      1.04865162	      1.53082556	      0.02671795	      6.17618972	    -12.87749295	     -7.49999987	      2.57762025	     -0.16755713	      5.80376143	      6.11765519	      0.10677323	     10.38839791	    -11.48907586	     -7.49999987	      1.74065198	      2.70907055	      0.30474742	     52.28498049	     11.28284403	     68.07348510	    115.26997406	     91.85142590	     41.62662712	     18.23683597	     68.08597249	    118.74753791	     83.61790607
